# AST/ASF file generated using VICON BodyLanguage
# -----------------------------------------------
:version 1.10
:name VICON
:units
  mass 1.0
  length 0.45
  angle deg
:documentation
   .ast/.asf automatically generated from VICON data using
   VICON BodyBuilder and BodyLanguage model FoxedUp or BRILLIANT.MOD
:root
   order TX TY TZ RX RY RZ
   axis XYZ
   position 0 0 0  
   orientation 0 0 0 
:bonedata
  begin
     id 1 
     name lhipjoint
     direction 0.570549 -0.739093 0.358072 
     length 2.41801 
     axis 0 0 0  XYZ
  end
  begin
     id 2 
     name lfemur
     direction 0.34202 -0.939693 0  
     length 7.44434  
     axis 0 0 20  XYZ
    dof rx ry rz
    limits (-160.0 20.0)
           (-70.0 70.0)
           (-60.0 70.0)
  end
  begin
     id 3 
     name ltibia
     direction 0.34202 -0.939693 0   
     length 7.60047   
     axis 0 0 20   XYZ
    dof rx
    limits (-10.0 170.0)
  end
  begin
     id 4 
     name lfoot
     direction 0.0909041 -0.249757 0.964032   
     length 2.03437   
     axis -90 7.62852e-016 20   XYZ
    dof rx rz
    limits (-45.0 90.0)
           (-70.0 20.0)
  end
  begin
     id 5 
     name ltoes
     direction 1.53547e-011 -4.2174e-011 1   
     length 1.02054   
     axis -90 7.62852e-016 20   XYZ
    dof rx
    limits (-90.0 20.0)
  end
  begin
     id 6 
     name rhipjoint
     direction -0.558096 -0.746754 0.361784   
     length 2.3932  
     axis 0 0 0  XYZ 
  end
  begin
     id 7 
     name rfemur
     direction -0.34202 -0.939693 0   
     length 7.3886   
     axis 0 0 -20   XYZ
    dof rx ry rz
    limits (-160.0 20.0)
           (-70.0 70.0)
           (-70.0 60.0)
  end
  begin
     id 8 
     name rtibia
     direction -0.34202 -0.939693 0   
     length 7.4839   
     axis 0 0 -20   XYZ
    dof rx
    limits (-10.0 170.0)
 end
 begin
     id 9 
     name rfoot
     direction -0.114619 -0.314914 0.942174   
     length 2.25127  
     axis -90 -7.62852e-016 -20   XYZ
    dof rx rz
    limits (-45.0 90.0)
           (-20.0 70.0)
  end
  begin
     id 10 
     name rtoes
     direction -1.53518e-011 -4.21881e-011 1   
     length 1.11821   
     axis -90 -7.62852e-016 -20   XYZ
    dof rx
    limits (-90.0 20.0)
  end
  begin
     id 11 
     name lowerback
     direction -0.00902269 0.996426 -0.0839821   
     length 2.25052   
     axis 0 0 0   XYZ
    dof rx ry rz
    limits (-20.0 45.0)
           (-30.0 30.0)
           (-30.0 30.0)
  end
  begin
     id 12 
     name upperback
     direction 0.0370973 0.999169 -0.0168941   
     length 2.24876   
     axis 0 0 0   XYZ
    dof rx ry rz
    limits (-20.0 45.0)
           (-30.0 30.0)
           (-30.0 30.0)
  end
  begin
     id 13 
     name thorax
     direction 0.0402726 0.998931 0.0227027   
     length 2.26408   
     axis 0 0 0   XYZ
    dof rx ry rz
    limits (-20.0 45.0)
           (-30.0 30.0)
           (-30.0 30.0)
  end
  begin
     id 14 
     name lowerneck
     direction -0.0733697 0.98508 0.155675   
     length 1.58204   
     axis 0 0 0   XYZ
    dof rx ry rz
    limits (-20.0 45.0)
           (-30.0 30.0)
           (-30.0 30.0)
  end
  begin
     id 15 
     name upperneck
     direction 0.0426554 0.993501 -0.105526   
     length 1.61222   
     axis 0 0 0   XYZ
    dof rx ry rz
    limits (-20.0 45.0)
           (-30.0 30.0)
           (-30.0 30.0)
  end
  begin
     id 16
     name head
     direction 0.020792 0.998384 -0.0528868  
     length 1.61527  
     axis 0 0 0   XYZ
    dof rx ry rz
    limits (-20.0 45.0)
           (-30.0 30.0)
           (-30.0 30.0)
  end
  begin
     id 17 
     name lclavicle
     direction 0.967109 0.155462 -0.201325  
     length 3.59357  
     axis 0 0 0   XYZ
    dof ry rz
    limits (-20.0 10.0)
           (0.0 20.0)
  end
  begin
     id 18 
     name lhumerus
     direction 1 -4.48968e-011 2.38195e-027   
     length 5.38154   
     axis 180 -30 -90   XYZ
    dof rx ry rz
    limits (-60.0 90.0)
           (-90.0 90.0)
           (-90.0 90.0)
  end
  begin
     id 19
     name lradius
     direction 1 -4.48961e-011 4.85371e-027   
     length 3.33312   
     axis 180 -30 -90   XYZ
    dof rx
    limits (-10.0 170.0)
  end
  begin
     id 20
     name lwrist
     direction 1 -4.48961e-011 4.76515e-027   
     length 1.66656   
     axis -3.27502e-015 90 90   XYZ
    dof ry
    limits (-180.0 0.0)
 end
  begin
     id 21 
     name lhand
     direction 1 -4.48951e-011 9.53074e-027   
     length 0.710789   
     axis -6.08098e-015 90 90   XYZ
    dof rx rz
    limits (-90.0 90.0)
           (-45.0 45.0)
  end
  begin
     id 22 
     name lfingers
     direction 1 -4.48953e-011 1.90613e-026   
     length 0.573057   
     axis -1.21619e-014 90 90   XYZ
    dof rx
    limits (0.0 90.0)
  end
  begin
     id 23
     name lthumb
     direction 0.707107 -6.34973e-011 0.707107   
     length 0.822798   
     axis -90 45 -9.86923e-015   XYZ
    dof rx rz
    limits (-45.0 45.0)
           (-45.0 45.0)
  end
  begin
     id 24 
     name rclavicle
     direction -0.9585 0.265289 -0.104398   
     length 3.42039  
     axis 0 0 0   XYZ 
    dof ry rz
    limits (-10.0 20.0)
           (-20.0 0.0)
  end
  begin
     id 25 
     name rhumerus
     direction -1 -4.48977e-011 2.21478e-027  
     length 5.16954   
     axis 180 30 90   XYZ
    dof rx ry rz
    limits (-90.0 60.0)
           (-90.0 90.0)
           (-90.0 90.0)
  end
  begin
     id 26 
     name rradius
     direction -1 -4.48967e-011 5.63677e-027   
     length 3.38287   
     axis 180 30 90   XYZ
    dof rx
    limits (-10.0 170.0)
  end
  begin
     id 27 
     name rwrist
     direction -1 -4.48967e-011 4.76501e-027   
     length 1.69144   
     axis -3.27502e-015 -90 -90   XYZ
    dof ry
    limits (-180.0 0.0)
  end
  begin
     id 28
     name rhand
     direction -1 -4.48902e-011 9.53292e-027   
     length 0.817967   
     axis -6.08098e-015 -90 -90   XYZ
    dof rx rz
    limits (-90.0 90.0)
           (-45.0 45.0)
  end
  begin
     id 29
     name rfingers
     direction -1 -4.49012e-011 1.90561e-026   
     length 0.659466   
     axis -1.21619e-014 -90 -90   XYZ
    dof rx
    limits (0.0 90.0)
  end
  begin
     id 30
     name rthumb
     direction -0.707107 -6.34944e-011 0.707107   
     length 0.946865   
     axis -90 -45 9.86923e-015   XYZ
    dof rx rz
    limits (-45.0 45.0)
           (-45.0 45.0)
  end
:hierarchy
  begin
    root lhipjoint rhipjoint lowerback
    lhipjoint lfemur
    lfemur ltibia
    ltibia lfoot
    lfoot ltoes
    rhipjoint rfemur
    rfemur rtibia
    rtibia rfoot
    rfoot rtoes
    lowerback upperback
    upperback thorax
    thorax lowerneck lclavicle rclavicle
    lowerneck upperneck
    upperneck head
    lclavicle lhumerus
    lhumerus lradius
    lradius lwrist
    lwrist lhand lthumb
    lhand lfingers
    rclavicle rhumerus
    rhumerus rradius
    rradius rwrist
    rwrist rhand rthumb
    rhand rfingers
  end

#!OML:ASF F:\twosubjects\two\wednesday\Session 1\Justin1.ASF
:FULLY-SPECIFIED
:DEGREES
21
root -4.16426 16.3677 -14.7701 -141.599 66.4844 -150.988
lowerback 6.33205 1.45878 7.90613
upperback 1.49545 2.74709 4.16211
thorax -1.84721 1.42417 -0.33059
lowerneck -12.051 -8.64165 -12.8435
upperneck 8.2375 -10.8146 11.4299
head 5.7914 -4.99111 4.6685
rclavicle -4.69132e-014 -2.76311e-014
rhumerus -6.06137 1.30135 -63.1827
rradius 48.2386
rwrist -44.1676
rhand -10.6234 9.6903
rfingers 7.12502
rthumb 15.3833 -19.7174
lclavicle -4.69132e-014 -2.76311e-014
lhumerus -31.1169 6.78658 78.4274
lradius 39.7071
lwrist -5.17991
lhand 3.04086 37.2688
lfingers 7.12502
lthumb 28.4996 65.1175
rfemur 3.60144 -0.687303 29.1705
rtibia 17.6948
rfoot -25.8918 -2.60914
rtoes -19.3066
lfemur -48.9639 6.98041 -6.60008
ltibia 57.583
lfoot -17.2518 -8.50582
ltoes -12.4683
22
root -4.02769 16.3453 -14.8649 -141.666 66.6114 -151.004
lowerback 6.13825 1.56426 7.99598
upperback 1.47902 2.86501 4.07605
thorax -1.73939 1.48344 -0.470102
lowerneck -11.9174 -8.58758 -13.0465
upperneck 7.95914 -10.7539 11.8532
head 5.71265 -4.94666 4.85024
rclavicle -1.50082e-014 -1.86858e-014
rhumerus -5.60058 1.04187 -62.6664
rradius 48.6113
rwrist -45.3263
rhand -10.1668 9.54075
rfingers 7.12502
rthumb 15.823 -19.8326
lclavicle -1.50082e-014 -1.86858e-014
lhumerus -30.7979 6.71397 77.9797
lradius 39.7387
lwrist -5.45676
lhand 3.2833 37.1907
lfingers 7.12502
lthumb 28.7312 65.0003
rfemur 4.17009 0.203005 28.9623
rtibia 18.2064
rfoot -26.1487 -1.93974
rtoes -14.0534
lfemur -48.5433 6.97012 -6.70692
ltibia 57.6776
lfoot -16.6011 -8.81167
ltoes -9.88583
23
root -3.89232 16.3076 -14.9658 -142.266 66.9948 -151.472
lowerback 6.17302 1.60234 7.7965
upperback 1.38695 2.8922 3.84409
thorax -1.8495 1.48536 -0.605326
lowerneck -12.2626 -8.62142 -12.8522
upperneck 8.28666 -10.8112 11.8003
head 5.8658 -4.9565 4.78293
rclavicle 3.05134e-014 3.63776e-014
rhumerus -5.25771 1.48233 -62.2472
rradius 49.0591
rwrist -46.5812
rhand -9.88096 9.2403
rfingers 7.12502
rthumb 16.0983 -20.111
lclavicle 3.05134e-014 3.63776e-014
lhumerus -30.6937 6.72043 77.2208
lradius 39.7634
lwrist -5.67736
lhand 3.36731 37.1561
lfingers 7.12502
lthumb 28.8115 64.9522
rfemur 4.76128 0.802075 28.3258
rtibia 18.8478
rfoot -26.2926 -1.03507
rtoes -9.41627
lfemur -47.662 7.20565 -7.37574
ltibia 57.9305
lfoot -17.1621 -8.44762
ltoes -10.5207
24
root -3.75998 16.2619 -15.0773 -142.795 67.27 -151.966
lowerback 6.33003 1.64398 7.79817
upperback 1.09112 2.96357 3.59626
thorax -2.22618 1.49485 -0.879901
lowerneck -12.2293 -8.61564 -12.5912
upperneck 8.42155 -10.839 11.6194
head 5.88012 -4.97282 4.68059
rclavicle 8.3589e-014 2.32578e-014
rhumerus -5.11696 2.11656 -61.7934
rradius 49.4013
rwrist -47.7867
rhand -9.86629 8.93549
rfingers 7.12502
rthumb 16.1124 -20.4147
lclavicle 8.3589e-014 2.32578e-014
lhumerus -30.7621 6.27142 76.4808
lradius 39.8461
lwrist -5.55186
lhand 3.45265 37.1588
lfingers 7.12502
lthumb 28.893 64.9409
rfemur 4.89999 0.729439 27.717
rtibia 19.9566
rfoot -26.3589 -1.41498
rtoes -13.4569
lfemur -47.0396 7.31487 -8.10771
ltibia 57.7591
lfoot -17.6622 -8.14509
ltoes -9.039
25
root -3.61387 16.261 -15.1902 -144.521 67.8031 -153.845
lowerback 6.17673 1.81114 7.09783
upperback 0.944306 3.10407 3.33119
thorax -2.30332 1.55492 -0.775126
lowerneck -12.4169 -8.76184 -12.5124
upperneck 8.45867 -11.0026 11.3765
head 5.92306 -5.05872 4.56319
rclavicle -7.71781e-014 2.44505e-014
rhumerus -4.88421 2.19018 -61.049
rradius 49.7581
rwrist -48.6286
rhand -10.1765 8.97089
rfingers 7.12502
rthumb 15.8136 -20.4032
lclavicle -7.71781e-014 2.44505e-014
lhumerus -30.4862 5.5206 76.1727
lradius 39.9905
lwrist -5.11502
lhand 3.66243 37.2415
lfingers 7.12502
lthumb 29.0934 64.9892
rfemur 4.7204 0.773272 26.5618
rtibia 21.5733
rfoot -26.4118 -1.99336
rtoes -17.0304
lfemur -45.9195 7.02271 -9.12496
ltibia 57.6406
lfoot -19.0201 -8.15948
ltoes -6.9246
26
root -3.45694 16.2541 -15.3005 -146.404 68.3768 -155.776
lowerback 5.86717 1.94951 6.29153
upperback 0.995196 3.1742 3.01491
thorax -2.09631 1.59324 -0.64674
lowerneck -12.9229 -8.89293 -12.1103
upperneck 8.52838 -11.1646 11.0998
head 6.00811 -5.12355 4.37384
rclavicle -1.30701e-014 -1.19271e-015
rhumerus -4.57095 2.03095 -60.4727
rradius 50.2124
rwrist -49.5481
rhand -10.6145 9.34737
rfingers 7.12502
rthumb 15.3918 -20.0597
lclavicle -1.30701e-014 -1.19271e-015
lhumerus -30.0624 5.3405 75.6692
lradius 40.1684
lwrist -5.21295
lhand 4.01176 37.3835
lfingers 7.12502
lthumb 29.4269 65.073
rfemur 4.48732 1.27839 25.4288
rtibia 23.6446
rfoot -26.3511 -1.41914
rtoes -13.2484
lfemur -44.7357 6.98504 -10.3809
ltibia 57.2756
lfoot -19.9201 -7.79958
ltoes -7.31706
27
root -3.3041 16.2264 -15.4074 -146.41 68.4341 -155.72
lowerback 5.82386 1.943 6.40695
upperback 0.779761 3.17485 2.94498
thorax -2.28505 1.58143 -0.785914
lowerneck -13.2656 -8.93782 -11.9123
upperneck 8.82156 -11.2274 10.9529
head 6.14396 -5.14248 4.27434
rclavicle 2.09718e-014 2.98177e-014
rhumerus -4.60268 2.35855 -59.9497
rradius 50.6777
rwrist -50.5362
rhand -10.6564 9.37693
rfingers 7.12502
rthumb 15.3515 -20.0332
lclavicle 2.09718e-014 2.98177e-014
lhumerus -30.1759 5.52326 74.9895
lradius 40.4538
lwrist -5.43327
lhand 3.79803 37.6029
lfingers 7.12502
lthumb 29.2229 65.3281
rfemur 4.11966 1.55813 25.2673
rtibia 25.7151
rfoot -25.8649 -1.01265
rtoes -11.4074
lfemur -43.9653 7.18998 -10.773
ltibia 56.9905
lfoot -19.6718 -8.17341
ltoes -0.64873
28
root -3.16571 16.186 -15.5127 -145.536 68.0595 -154.905
lowerback 5.86682 1.8386 7.02439
upperback 0.332086 3.12112 3.12122
thorax -2.75622 1.53018 -0.953548
lowerneck -13.4539 -9.20644 -12.8809
upperneck 9.43855 -11.5166 11.4909
head 6.49735 -5.26703 4.55078
rclavicle 1.06847e-014 3.61788e-014
rhumerus -4.79698 2.76169 -59.303
rradius 51.0754
rwrist -51.1351
rhand -10.3612 8.90536
rfingers 7.12502
rthumb 15.6358 -20.4828
lclavicle 1.06847e-014 3.61788e-014
lhumerus -30.5861 5.34424 74.5383
lradius 40.7959
lwrist -5.0852
lhand 3.27516 37.65
lfingers 7.12502
lthumb 28.7235 65.461
rfemur 3.17017 1.34698 25.6199
rtibia 28.4281
rfoot -25.2853 -1.53799
rtoes -16.0625
lfemur -43.354 8.09199 -11.3747
ltibia 56.8432
lfoot -21.8159 -3.21922
ltoes -29.0914
29
root -3.01238 16.232 -15.6291 -146.452 67.9275 -155.946
lowerback 5.81232 1.69143 6.89687
upperback 0.0326528 2.92001 3.02137
thorax -3.05092 1.41354 -0.975569
lowerneck -13.8737 -9.57003 -13.7621
upperneck 10.1793 -11.9597 12.1958
head 6.96394 -5.43935 4.84062
rclavicle 1.33186e-014 -2.10712e-014
rhumerus -4.84094 2.88386 -59.0478
rradius 51.3325
rwrist -51.629
rhand -10.9474 8.33167
rfingers 7.12502
rthumb 15.0711 -21.0997
lclavicle 1.33186e-014 -2.10712e-014
lhumerus -30.7441 5.14257 73.9114
lradius 41.1147
lwrist -4.88334
lhand 3.37988 37.6391
lfingers 7.12502
lthumb 28.8235 65.4331
rfemur 2.27531 1.46805 25.2427
rtibia 31.2615
rfoot -24.2844 -1.63931
rtoes -16.4075
lfemur -42.5407 7.248 -11.4204
ltibia 56.7344
lfoot -22.1877 -4.73845
ltoes -18.2112
